<?xml version="1.0" encoding="utf-8"?>
<!-- Generator: Adobe Illustrator 16.0.3, SVG Export Plug-In . SVG Version: 6.00 Build 0)  -->
<!DOCTYPE svg PUBLIC "-//W3C//DTD SVG 1.1//EN" "http://www.w3.org/Graphics/SVG/1.1/DTD/svg11.dtd">
<svg version="1.1" id="Layer_1" xmlns="http://www.w3.org/2000/svg" xmlns:xlink="http://www.w3.org/1999/xlink" x="0px" y="0px"
	 width="275px" height="48px" viewBox="0 0 2735.907 480.096" enable-background="new 0 0 2735.907 480.096"
	 xml:space="preserve">
<g>
	<g>
		<path fill="#009877" d="M484.361,124.734h39.828l30.733,147.574l37.977-147.574h33.668l38.536,147.574l30.441-147.574h39.831
			l-47.922,231.183H648.62l-39.186-149.46l-38.462,149.46h-38.462L484.361,124.734z"/>
		<path fill="#009877" d="M767.114,124.734h116.108v43.062h-75.911v41.805h75.911v42.276h-75.911v60.822h75.911v43.219H767.114
			V124.734z"/>
		<path fill="#009877" d="M918.071,124.734h40.196v231.183h-40.196V124.734z"/>
		<path fill="#009877" d="M1115.441,156.167l-29.984,28.76c-10.528-15.925-21.247-23.888-32.159-23.888
			c-5.312,0-9.656,1.547-13.036,4.636c-3.38,3.091-5.069,6.576-5.069,10.451c0,3.877,1.206,7.543,3.621,11.001
			c3.283,4.612,13.181,14.513,29.691,29.704c15.449,14.041,24.816,22.894,28.102,26.56c8.205,9.012,14.023,17.628,17.453,25.853
			c3.427,8.227,5.142,17.209,5.142,26.953c0,18.965-6.032,34.629-18.095,46.99c-12.063,12.364-27.791,18.546-47.188,18.546
			c-15.15,0-28.347-4.035-39.589-12.102c-11.242-8.067-20.869-20.745-28.878-38.033l34.031-22.316
			c10.234,20.431,22.012,30.646,35.335,30.646c6.949,0,12.792-2.2,17.523-6.601c4.73-4.4,7.096-9.48,7.096-15.244
			c0-5.238-1.787-10.476-5.358-15.716c-3.574-5.238-11.443-13.254-23.609-24.046c-23.176-20.534-38.144-36.383-44.903-47.541
			c-6.76-11.159-10.138-22.29-10.138-33.397c0-16.03,5.621-29.782,16.865-41.254c11.242-11.473,25.117-17.209,41.621-17.209
			c10.616,0,20.727,2.671,30.328,8.015C1093.846,132.278,1104.245,142.022,1115.441,156.167z"/>
		<path fill="#009877" d="M1269.434,156.167l-29.984,28.76c-10.528-15.925-21.247-23.888-32.159-23.888
			c-5.312,0-9.656,1.547-13.036,4.636c-3.38,3.091-5.069,6.576-5.069,10.451c0,3.877,1.206,7.543,3.621,11.001
			c3.283,4.612,13.181,14.513,29.691,29.704c15.449,14.041,24.816,22.894,28.102,26.56c8.205,9.012,14.023,17.628,17.453,25.853
			c3.427,8.227,5.142,17.209,5.142,26.953c0,18.965-6.032,34.629-18.095,46.99c-12.063,12.364-27.791,18.546-47.188,18.546
			c-15.15,0-28.347-4.035-39.589-12.102c-11.242-8.067-20.869-20.745-28.878-38.033l34.031-22.316
			c10.234,20.431,22.012,30.646,35.335,30.646c6.949,0,12.792-2.2,17.523-6.601c4.73-4.4,7.096-9.48,7.096-15.244
			c0-5.238-1.787-10.476-5.358-15.716c-3.574-5.238-11.443-13.254-23.609-24.046c-23.176-20.534-38.144-36.383-44.903-47.541
			c-6.76-11.159-10.138-22.29-10.138-33.397c0-16.03,5.621-29.782,16.865-41.254c11.242-11.473,25.117-17.209,41.621-17.209
			c10.616,0,20.727,2.671,30.328,8.015C1247.838,132.278,1258.237,142.022,1269.434,156.167z"/>
		<path fill="#009877" d="M1415.285,124.734h39.447l49.306,161.247l49.754-161.247h39.423l35.681,231.183h-39.151l-22.808-146.002
			l-45.186,146.002h-35.681l-44.785-146.002l-23.353,146.002h-39.474L1415.285,124.734z"/>
		<path fill="#009877" d="M1726.028,124.734h41.061l81.806,231.183h-42.076l-16.643-47.62h-86.79l-17.304,47.62h-42.077
			L1726.028,124.734z M1746.812,186.027l-28.537,79.366h56.904L1746.812,186.027z"/>
		<path fill="#009877" d="M1880.344,124.734h38.837l91.009,152.131V124.734h40.486v231.183h-38.948l-90.897-151.66v151.66h-40.486
			V124.734z"/>
		<path fill="#009877" d="M2099.838,124.734h105.554v42.905h-65.356v41.962h65.356v42.276h-65.356v104.041h-40.197V124.734z"/>
		<path fill="#009877" d="M2244.143,124.734h42.895c23.492,0,40.223,2.279,50.188,6.836c9.966,4.558,17.982,12.128,24.048,22.709
			c6.066,10.584,9.101,23.103,9.101,37.562c0,15.193-3.351,27.896-10.049,38.111c-6.699,10.215-16.796,17.943-30.288,23.181
			l50.387,102.783h-44.26l-47.829-97.911h-3.705v97.911h-40.486V124.734z M2284.629,215.102h12.686
			c12.876,0,21.741-1.839,26.595-5.518c4.853-3.679,7.279-9.776,7.279-18.292c0-5.044-1.202-9.432-3.604-13.165
			c-2.404-3.732-5.624-6.412-9.659-8.042c-4.034-1.63-11.434-2.446-22.197-2.446h-11.1V215.102z"/>
		<path fill="#009877" d="M2413.317,124.734h116.108v43.062h-75.911v41.805h75.911v42.276h-75.911v60.822h75.911v43.219h-116.108
			V124.734z M2478.529,45.211h46.704l-52.922,61.607h-28.341L2478.529,45.211z"/>
		<path fill="#009877" d="M2567.311,124.734h47.965c30.916,0,53.886,4.165,68.91,12.494s27.4,21.873,37.129,40.626
			c9.729,18.756,14.593,40.653,14.593,65.693c0,17.813-2.723,34.182-8.163,49.113c-5.442,14.93-12.954,27.321-22.538,37.168
			c-9.584,9.85-19.961,16.659-31.133,20.431c-11.173,3.772-30.53,5.658-58.075,5.658h-48.688V124.734z M2607.508,167.167v145.845
			h18.797c18.508,0,31.931-2.306,40.27-6.922c8.337-4.614,15.157-12.377,20.46-23.284c5.301-10.908,7.953-24.333,7.953-40.277
			c0-24.542-6.315-43.581-18.942-57.111c-11.375-12.166-29.642-18.25-54.801-18.25H2607.508z"/>
	</g>
	<g>
		<path fill="#009877" d="M200.621,0C89.82,0,0,107.474,0,240.048c0,132.573,89.82,240.048,200.621,240.048
			c110.796,0,200.616-107.476,200.616-240.048C401.237,107.474,311.417,0,200.621,0z M200.621,440.469
			c-92.51,0-167.503-89.729-167.503-200.421c0-110.688,74.993-200.422,167.503-200.422c92.506,0,167.501,89.733,167.501,200.422
			C368.122,350.74,293.127,440.469,200.621,440.469z"/>
		<g>
			<path fill="#009877" d="M331.6,162.549c-5.361-12.717-11.993-24.523-19.704-35.202l-74.702,228.042l-21.289-105.426h-0.267
				h-30.036h-0.265l-21.293,105.426L89.345,127.347C81.634,138.025,75,149.832,69.637,162.549l25.388,77.499l-25.388,77.503
				C75,330.263,81.634,342.07,89.345,352.75l21.298-65.023l37.632,114.88c10.948,4.9,22.522,8.257,34.54,9.867l17.802-88.156
				l17.811,88.156c12.018-1.61,23.592-4.967,34.534-9.867l37.632-114.88l21.303,65.023c7.711-10.68,14.343-22.486,19.704-35.198
				l-25.386-77.503L331.6,162.549z"/>
			<path fill="#009877" d="M164.044,124.708l21.293,105.423h0.265h30.036h0.267l21.289-105.423l30.257,92.37l15.618-47.676
				l-30.107-91.912c-10.942-4.901-22.517-8.257-34.534-9.869l-17.811,88.157l-17.802-88.157c-12.018,1.611-23.592,4.968-34.54,9.869
				l-30.105,91.909l15.618,47.679L164.044,124.708z"/>
		</g>
	</g>
</g>
</svg>
